<svg width="238" height="238" viewBox="0 0 238 238" fill="none" xmlns="http://www.w3.org/2000/svg">
<g filter="url(#filter0_f_422_7901)">
<circle cx="119" cy="119" r="64" fill="#E03F3F" fill-opacity="0.3"/>
</g>
<path fill-rule="evenodd" clip-rule="evenodd" d="M214.342 97.0718C213.386 96.5195 212.162 96.8472 211.61 97.8038L205.61 108.196C205.058 109.153 205.386 110.376 206.342 110.928L213.27 114.928C214.227 115.48 215.45 115.153 216.002 114.196L221.002 105.536L218.404 104.036C217.926 103.76 217.762 103.148 218.038 102.67L219.538 100.072L214.342 97.0718Z" fill="url(#paint0_linear_422_7901)"/>
<path fill-rule="evenodd" clip-rule="evenodd" d="M219.538 100.072L221.002 105.536L218.404 104.036C217.926 103.76 217.762 103.148 218.038 102.67L219.538 100.072Z" fill="#FA7878"/>
<path fill-rule="evenodd" clip-rule="evenodd" d="M18.4641 86.1436C16.5509 87.2481 15.8954 89.6945 17 91.6077L29 112.392C30.1046 114.305 32.5509 114.961 34.4641 113.856L48.3205 105.856C50.2337 104.752 50.8892 102.305 49.7846 100.392L39.7846 83.0718C35.9583 85.2809 31.0655 83.9699 28.8564 80.1436L18.4641 86.1436Z" fill="url(#paint1_linear_422_7901)"/>
<path fill-rule="evenodd" clip-rule="evenodd" d="M28.8564 80.1436L39.7846 83.0718L34.5885 86.0718C33.6319 86.624 32.4087 86.2963 31.8564 85.3397L28.8564 80.1436Z" fill="#FA7878"/>
<path fill-rule="evenodd" clip-rule="evenodd" d="M87 31C78.1634 31 71 38.1634 71 47V143C71 151.837 78.1634 159 87 159H151C159.837 159 167 151.837 167 143V63H151C142.163 63 135 55.8366 135 47V31H87Z" fill="url(#paint2_linear_422_7901)"/>
<path fill-rule="evenodd" clip-rule="evenodd" d="M135 31L167 63H143C138.582 63 135 59.4183 135 55V31Z" fill="#FA7878"/>
<circle cx="143" cy="95" r="4" fill="#A60202"/>
<circle cx="95" cy="95" r="4" fill="#A60202"/>
<path fill-rule="evenodd" clip-rule="evenodd" d="M119 111C123.005 111 126.433 113.956 126.99 117.862C127.068 118.409 126.688 118.915 126.141 118.993C125.594 119.071 125.088 118.691 125.01 118.144C124.594 115.226 122.012 113 119 113C115.988 113 113.407 115.225 112.99 118.143C112.912 118.689 112.405 119.069 111.858 118.991C111.312 118.913 110.932 118.407 111.01 117.86C111.568 113.955 114.995 111 119 111Z" fill="#A60202"/>
<path d="M127 129C127 127.895 127.895 127 129 127H175C183.837 127 191 134.163 191 143V175C191 183.837 183.837 191 175 191H143C134.163 191 127 183.837 127 175V129Z" fill="#FA7878"/>
<path fill-rule="evenodd" clip-rule="evenodd" d="M153.427 144.985C153.196 141.751 155.758 139 159 139C162.242 139 164.804 141.751 164.573 144.985L163.285 163.01C163.124 165.258 161.254 167 159 167C156.746 167 154.876 165.258 154.715 163.01L153.427 144.985Z" fill="white"/>
<rect x="155" y="171" width="8" height="8" rx="4" fill="white"/>
<circle cx="110" cy="15" r="4" fill="url(#paint3_linear_422_7901)"/>
<path fill-rule="evenodd" clip-rule="evenodd" d="M50 47C53.3137 47 56 49.6863 56 53C56 56.3137 53.3137 59 50 59C46.6863 59 44 56.3137 44 53C44 49.6863 46.6863 47 50 47ZM50 49C47.7909 49 46 50.7909 46 53C46 55.2091 47.7909 57 50 57C52.2091 57 54 55.2091 54 53C54 50.7909 52.2091 49 50 49Z" fill="url(#paint4_linear_422_7901)"/>
<circle cx="179" cy="31" r="8" fill="url(#paint5_linear_422_7901)"/>
<path fill-rule="evenodd" clip-rule="evenodd" d="M191 74C192.657 74 194 75.3431 194 77C194 78.6569 192.657 80 191 80C189.343 80 188 78.6569 188 77C188 75.3431 189.343 74 191 74ZM191 76C190.448 76 190 76.4477 190 77C190 77.5523 190.448 78 191 78C191.552 78 192 77.5523 192 77C192 76.4477 191.552 76 191 76Z" fill="url(#paint6_linear_422_7901)"/>
<defs>
<filter id="filter0_f_422_7901" x="0.634365" y="0.634365" width="236.731" height="236.731" filterUnits="userSpaceOnUse" color-interpolation-filters="sRGB">
<feFlood flood-opacity="0" result="BackgroundImageFix"/>
<feBlend mode="normal" in="SourceGraphic" in2="BackgroundImageFix" result="shape"/>
<feGaussianBlur stdDeviation="27.1828" result="effect1_foregroundBlur_422_7901"/>
</filter>
<linearGradient id="paint0_linear_422_7901" x1="221.806" y1="92.1436" x2="202.744" y2="94.4402" gradientUnits="userSpaceOnUse">
<stop stop-color="#FFD6D6"/>
<stop offset="1" stop-color="#FF7A7A"/>
</linearGradient>
<linearGradient id="paint1_linear_422_7901" x1="17.3923" y1="68.2871" x2="2.308" y2="103.6" gradientUnits="userSpaceOnUse">
<stop stop-color="#FFD6D6"/>
<stop offset="1" stop-color="#FF7A7A"/>
</linearGradient>
<linearGradient id="paint2_linear_422_7901" x1="119" y1="-33" x2="-3.88" y2="59.16" gradientUnits="userSpaceOnUse">
<stop stop-color="#FFD6D6"/>
<stop offset="1" stop-color="#FF7A7A"/>
</linearGradient>
<linearGradient id="paint3_linear_422_7901" x1="110" y1="7" x2="102" y2="15" gradientUnits="userSpaceOnUse">
<stop stop-color="#FFF2F0"/>
<stop offset="1" stop-color="#FAC3C3"/>
</linearGradient>
<linearGradient id="paint4_linear_422_7901" x1="50" y1="41" x2="38" y2="53" gradientUnits="userSpaceOnUse">
<stop stop-color="#FFF2F0"/>
<stop offset="1" stop-color="#FAC3C3"/>
</linearGradient>
<linearGradient id="paint5_linear_422_7901" x1="179" y1="15" x2="163" y2="31" gradientUnits="userSpaceOnUse">
<stop stop-color="#FFF2F0"/>
<stop offset="1" stop-color="#FAC3C3"/>
</linearGradient>
<linearGradient id="paint6_linear_422_7901" x1="191" y1="71" x2="185" y2="77" gradientUnits="userSpaceOnUse">
<stop stop-color="#FFF2F0"/>
<stop offset="1" stop-color="#FAC3C3"/>
</linearGradient>
</defs>
</svg>
