<svg width="80" height="80" viewBox="0 0 80 80" fill="none" xmlns="http://www.w3.org/2000/svg">
<path fill-rule="evenodd" clip-rule="evenodd" d="M40.0103 4C45.7425 4 51.1083 5.33489 55.8982 7.66441H55.8196L40.0627 18.2912L24.1749 7.66441C28.9648 5.33489 34.3567 4 40.0103 4ZM61.4209 10.9885C62.7558 11.9832 64.0122 13.0563 65.2162 14.1818L40.0889 31.1428L14.883 14.1818C16.0085 13.0563 17.2649 11.9832 18.5997 10.9885L40.0889 25.4106L61.4471 10.9885H61.4209ZM69.1424 18.71C70.0585 19.9663 70.9484 21.3012 71.7336 22.767L40.0889 43.9944L8.36559 22.7146C9.17699 21.3274 10.0407 19.9925 10.9568 18.6576L40.0889 38.2098L69.1424 18.7361V18.71ZM74.1417 28.1589C74.7437 29.7555 75.2148 31.4307 75.5289 33.132L40.0889 56.8721L4.57031 33.0535C4.91058 31.4045 5.35554 29.7294 5.9052 28.1851L40.0889 51.0614L74.1417 28.1066V28.1589Z" fill="#FDD400"/>
<path fill-rule="evenodd" clip-rule="evenodd" d="M77.0472 39.7014V40.0417C77.0472 50.2759 72.8593 59.5154 66.211 66.1637C59.4842 72.8905 50.2447 76.9998 40.0628 76.9998H39.9843C29.8025 76.9998 20.563 72.8905 13.8362 66.1637C7.18789 59.5154 3 50.2759 3 40.094V40.0155V39.6229V37.9478L4.33489 38.89L40.0367 62.9704L75.6076 38.9686L76.9425 38.0263L77.021 39.7014H77.0472Z" fill="#0092A1"/>
</svg>
