<svg width="36" height="46" viewBox="0 0 36 46" fill="none" xmlns="http://www.w3.org/2000/svg">
<path opacity="0.15" d="M4.62744 43.9125C4.62744 44.1757 5.02506 44.4363 5.7976 44.6795C6.57014 44.9226 7.70247 45.1436 9.12994 45.3297C10.5574 45.5158 12.2521 45.6634 14.1171 45.7641C15.9822 45.8648 17.9812 45.9167 19.9999 45.9167C22.0187 45.9167 24.0177 45.8648 25.8827 45.7641C27.7478 45.6634 29.4425 45.5158 30.8699 45.3297C32.2974 45.1436 33.4297 44.9226 34.2023 44.6795C34.9748 44.4363 35.3724 44.1757 35.3724 43.9125C35.3724 43.6493 34.9748 43.3887 34.2023 43.1455C33.4297 42.9024 32.2974 42.6814 30.8699 42.4953C29.4425 42.3092 27.7478 42.1616 25.8827 42.0609C24.0177 41.9602 22.0187 41.9083 19.9999 41.9083C17.9812 41.9083 15.9822 41.9602 14.1171 42.0609C12.2521 42.1616 10.5574 42.3092 9.12994 42.4953C7.70247 42.6814 6.57014 42.9024 5.7976 43.1455C5.02506 43.3887 4.62744 43.6493 4.62744 43.9125Z" fill="#45413C"/>
<path d="M5.32078 3.11414V34.6283C5.32078 36.4158 4.87661 37.8783 3.08911 37.8783H32.9349C34.7224 37.8783 35.1666 36.4375 35.1666 34.6283V3.11414H5.32078Z" fill="#FFF5E3"/>
<path d="M5.3208 3.11414H35.1666V8.96414H5.3208V3.11414Z" fill="#F7E5C6"/>
<path d="M35.1666 34.6283C35.1666 36.4158 34.7224 37.8783 32.9349 37.8783H3.08911C4.87661 37.8783 5.32078 36.4375 5.32078 34.6283V3.11414H35.1666V34.6283Z" stroke="#45413C" stroke-width="0.5" stroke-linecap="round" stroke-linejoin="round"/>
<path d="M30.3783 34.6284V33.7509H0.5V34.6284C0.5 36.4159 1.28 37.8784 3.0675 37.8784H32.935C31.1583 37.8567 30.3783 36.4159 30.3783 34.6284Z" fill="#F7E5C6" stroke="#45413C" stroke-width="0.5" stroke-linecap="round" stroke-linejoin="round"/>
<path d="M4.20505 0.557495C3.28421 0.557495 2.52588 1.70583 2.52588 3.11416C2.52588 4.52249 3.28421 5.68166 4.20505 5.68166H33.455V0.557495H4.20505Z" fill="#F7E5C6"/>
<path d="M4.20505 0.557495C3.28421 0.557495 2.52588 1.70583 2.52588 3.11416C2.52628 3.50868 2.59217 3.9004 2.72088 4.27333C2.99171 3.43916 3.55505 2.865 4.20505 2.865H33.455V0.557495H4.20505Z" fill="#FFF5E3"/>
<path d="M4.20505 0.557495C3.28421 0.557495 2.52588 1.70583 2.52588 3.11416C2.52588 4.52249 3.28421 5.68166 4.20505 5.68166H33.455V0.557495H4.20505Z" stroke="#45413C" stroke-width="0.5" stroke-linecap="round" stroke-linejoin="round"/>
<path d="M31.83 3.11416C31.83 3.44991 31.8731 3.78237 31.957 4.09256C32.0408 4.40275 32.1637 4.68459 32.3186 4.922C32.4735 5.15941 32.6574 5.34773 32.8598 5.47621C33.0623 5.6047 33.2792 5.67083 33.4983 5.67083C33.7174 5.67083 33.9343 5.6047 34.1367 5.47621C34.3391 5.34773 34.5231 5.15941 34.678 4.922C34.8329 4.68459 34.9558 4.40275 35.0396 4.09256C35.1235 3.78237 35.1666 3.44991 35.1666 3.11416C35.1666 2.77842 35.1235 2.44596 35.0396 2.13577C34.9558 1.82558 34.8329 1.54373 34.678 1.30633C34.5231 1.06892 34.3391 0.880595 34.1367 0.75211C33.9343 0.623626 33.7174 0.557495 33.4983 0.557495C33.2792 0.557495 33.0623 0.623626 32.8598 0.75211C32.6574 0.880595 32.4735 1.06892 32.3186 1.30633C32.1637 1.54373 32.0408 1.82558 31.957 2.13577C31.8731 2.44596 31.83 2.77842 31.83 3.11416Z" fill="#F0D5A8"/>
<path d="M33.4984 2.58333C34.1917 2.58333 34.7767 3.2225 35.0367 4.14333C35.1273 3.8079 35.171 3.46157 35.1667 3.11416C35.1667 1.70583 34.4192 0.557495 33.4984 0.557495C32.5775 0.557495 31.83 1.70583 31.83 3.11416C31.8277 3.45432 31.8715 3.79323 31.96 4.12166C32.2092 3.20083 32.805 2.58333 33.4984 2.58333Z" fill="#DEBB7E"/>
<path d="M31.83 3.11416C31.83 3.44991 31.8731 3.78237 31.957 4.09256C32.0408 4.40275 32.1637 4.68459 32.3186 4.922C32.4735 5.15941 32.6574 5.34773 32.8598 5.47621C33.0623 5.6047 33.2792 5.67083 33.4983 5.67083C33.7174 5.67083 33.9343 5.6047 34.1367 5.47621C34.3391 5.34773 34.5231 5.15941 34.678 4.922C34.8329 4.68459 34.9558 4.40275 35.0396 4.09256C35.1235 3.78237 35.1666 3.44991 35.1666 3.11416C35.1666 2.77842 35.1235 2.44596 35.0396 2.13577C34.9558 1.82558 34.8329 1.54373 34.678 1.30633C34.5231 1.06892 34.3391 0.880595 34.1367 0.75211C33.9343 0.623626 33.7174 0.557495 33.4983 0.557495C33.2792 0.557495 33.0623 0.623626 32.8598 0.75211C32.6574 0.880595 32.4735 1.06892 32.3186 1.30633C32.1637 1.54373 32.0408 1.82558 31.957 2.13577C31.8731 2.44596 31.83 2.77842 31.83 3.11416V3.11416Z" stroke="#45413C" stroke-width="0.5" stroke-linecap="round" stroke-linejoin="round"/>
<path d="M9.46997 10.275H24.42" stroke="#45413C" stroke-width="0.5" stroke-linecap="round" stroke-linejoin="round"/>
<path d="M9.46997 24.8892H24.42" stroke="#45413C" stroke-width="0.5" stroke-linecap="round" stroke-linejoin="round"/>
<path d="M9.46997 28.8217H26.8358" stroke="#45413C" stroke-width="0.5" stroke-linecap="round" stroke-linejoin="round"/>
<path d="M9.46997 13.9475H29.9341" stroke="#45413C" stroke-width="0.5" stroke-linecap="round" stroke-linejoin="round"/>
<path d="M9.46997 17.7933H29.9341" stroke="#45413C" stroke-width="0.5" stroke-linecap="round" stroke-linejoin="round"/>
</svg>
